<svg xmlns="http://www.w3.org/2000/svg" width="118" height="266" viewBox="0 0 118 266"><g transform="translate(-269 -159)"><path d="M5.284,207V48.447H0V40.519H6.474L48.433,9.46V0H69.567V8.808l42.84,31.711H118v7.928h-4.4V207Zm.881-.881H112.716V48.447H6.164ZM117.119,47.566V41.4H.881v6.166H117.119ZM7.954,40.519H110.927L69.276,9.689H49.6ZM68.687,8.808V.881H49.313V8.808Z" transform="translate(269 195)" fill="#878787"/><g transform="translate(140.875)"><path d="M.375,6h-.75V0h.75Z" transform="translate(184.5 189.5)" fill="#878787"/><path d="M.375,6h-.75V0h.75Z" transform="translate(189.5 189.5)" fill="#878787"/></g></g><rect width="103" height="81" transform="translate(8 160)" fill="#ff4d4f"/><rect width="103" height="79" transform="translate(8 86)" fill="#ff4d4f"/><text transform="translate(40 262)" fill="#3d3d3d" font-size="12" font-family="OpenSans-Bold, Open Sans" font-weight="700"><tspan x="0" y="0">BIN 05</tspan></text><text transform="translate(59 68)" font-size="10" font-family="OpenSans-Semibold, Open Sans" font-weight="600" letter-spacing="-0.017em"><tspan x="-10.164" y="0">DNS</tspan></text><text transform="translate(59 11)" font-size="10" font-family="OpenSans-Semibold, Open Sans" font-weight="600" letter-spacing="-0.017em"><tspan x="-17.949" y="0">160,041</tspan></text><g transform="translate(-101 -159)"><g transform="translate(-7 -3)"><text transform="translate(168 325)" font-size="10" font-family="OpenSans-Bold, Open Sans" font-weight="700"><tspan x="-18.574" y="0">149,752</tspan><tspan x="-12.842" y="22.5">12.88</tspan><tspan x="-9.988" y="45">0.00</tspan><tspan x="-12.842" y="67.5">61.71</tspan></text></g><text transform="translate(135 258)" font-size="10" font-family="OpenSans-Semibold, Open Sans" font-weight="600" letter-spacing="-0.017em"><tspan x="0" y="0">Free 25%</tspan></text><text transform="translate(135 275)" font-size="10" font-family="OpenSans-Semibold, Open Sans" font-weight="600" letter-spacing="-0.017em"><tspan x="0" y="0">Occup 75%</tspan></text></g></svg>