<svg xmlns="http://www.w3.org/2000/svg" width="83" height="236" viewBox="0 0 83 236"><g transform="translate(-269.267 -158)"><path d="M3.716,180.067V48.447H0V40.519H4.553L34.067,9.461V0H48.933V8.808L79.066,40.519H83v7.928H79.9v131.62Zm.62-.732H79.284V48.447H4.336ZM82.381,47.566V41.4H.619v6.166H82.381ZM5.594,40.519h72.43l-29.3-30.83H34.891ZM48.314,8.808V.881H34.687V8.808Z" transform="translate(269.267 195)" fill="#878787"/><g transform="translate(307.306 189.5)"><path d="M.375,6h-.75V0h.75Z" transform="translate(0.375 0)" fill="#878787"/><path d="M.375,6h-.75V0h.75Z" transform="translate(5.375 0)" fill="#878787"/></g></g><rect width="72" height="90" transform="translate(6 123)" fill="#ff4d4f"/><rect width="72" height="38" transform="translate(6 87)" fill="#36cfc9"/><text transform="translate(22 232)" fill="#3d3d3d" font-size="12" font-family="OpenSans-Bold, Open Sans" font-weight="700"><tspan x="0" y="0">BIN 08</tspan></text><text transform="translate(41 71)" font-size="10" font-family="OpenSans-Semibold, Open Sans" font-weight="600" letter-spacing="-0.017em"><tspan x="-11.51" y="0">HRW</tspan></text><text transform="translate(41 11)" font-size="10" font-family="OpenSans-Semibold, Open Sans" font-weight="600" letter-spacing="-0.017em"><tspan x="-12.411" y="0">8,000</tspan></text><g transform="translate(-120 -179)"><g transform="translate(-7 -3)"><text transform="translate(168 325)" font-size="10" font-family="OpenSans-Bold, Open Sans" font-weight="700"><tspan x="-18.574" y="0">149,752</tspan><tspan x="-12.842" y="22.5">12.88</tspan><tspan x="-9.988" y="45">0.00</tspan><tspan x="-12.842" y="67.5">61.71</tspan></text></g><text transform="translate(140 279)" font-size="10" font-family="OpenSans-Semibold, Open Sans" font-weight="600" letter-spacing="-0.017em"><tspan x="0" y="0">Free 25%</tspan></text><text transform="translate(135 296)" font-size="10" font-family="OpenSans-Semibold, Open Sans" font-weight="600" letter-spacing="-0.017em"><tspan x="0" y="0">Occup 75%</tspan></text></g></svg>