<svg xmlns="http://www.w3.org/2000/svg" width="15.036" height="16.182" viewBox="0 0 15.036 16.182">
  <g id="Bin_Process_Icon" data-name="Bin Process Icon" transform="translate(0.501 0.5)">
    <path id="Union_150" data-name="Union 150" d="M2.779,13.846A4.637,4.637,0,0,1,1.3,9.828L.2,8.768A.391.391,0,0,1,0,8.482a.377.377,0,0,1,.115-.321.414.414,0,0,1,.335-.11.4.4,0,0,1,.3.185l1.1,1.06a5.1,5.1,0,0,1,4.106,1.341A4.678,4.678,0,0,1,7,12.186a4.777,4.777,0,0,1,2.07-2.281A5.082,5.082,0,0,1,12.161,9.3l1.1-1.059.014.014a.405.405,0,0,1,.3-.192.414.414,0,0,1,.34.111.378.378,0,0,1,.114.325.387.387,0,0,1-.2.284l-1.1,1.06a4.644,4.644,0,0,1-1.484,4,5.083,5.083,0,0,1-4.225,1.264,5.152,5.152,0,0,1-.809.064A5.058,5.058,0,0,1,2.779,13.846ZM8.613,11.21a3.914,3.914,0,0,0-1.2,3.206,4.287,4.287,0,0,0,3.352-1.163l-.009-.02a3.941,3.941,0,0,0,1.2-3.18q-.194-.017-.388-.017A4.267,4.267,0,0,0,8.613,11.21ZM2.042,10.025a3.919,3.919,0,0,0,1.2,3.228,4.277,4.277,0,0,0,3.362,1.155A3.915,3.915,0,0,0,5.4,11.18,4.263,4.263,0,0,0,2.45,10.005Q2.247,10.005,2.042,10.025Zm4.734.02A4.484,4.484,0,0,1,6.644,2.7a.359.359,0,0,1-.029-.132V.375a.391.391,0,0,1,.78-.025V2.542a.437.437,0,0,1-.026.134A4.563,4.563,0,0,1,9.229,6.309a4.6,4.6,0,0,1-2,3.735h0L7,10.2ZM5.559,6.3a3.814,3.814,0,0,0,1.43,2.958A3.812,3.812,0,0,0,8.433,6.3l.012.011A3.812,3.812,0,0,0,6.989,3.342,3.814,3.814,0,0,0,5.559,6.3Z" transform="translate(0)" fill="#878787" stroke="rgba(0,0,0,0)" stroke-width="1"/>
  </g>
</svg>
