<svg id="Group_28956" data-name="Group 28956" xmlns="http://www.w3.org/2000/svg" xmlns:xlink="http://www.w3.org/1999/xlink" width="135.924" height="14.307" viewBox="0 0 135.924 14.307">
  <defs>
    <clipPath id="clip-path">
      <path id="Path_85714" data-name="Path 85714" d="M0,0H135.924V14.307H0Z" fill="none"/>
    </clipPath>
  </defs>
  <g id="Mask_Group_58" data-name="Mask Group 58" transform="translate(0 0)" clip-path="url(#clip-path)">
    <path id="Path_12" data-name="Path 12" d="M.232.38H7.816C8.85.38,10.3.656,10.78,1.759c.551,1.1,2.413,5.1,2.413,5.1s2.137-4.343,2.551-5.1A2.627,2.627,0,0,1,18.225.38h3.654c1.792,0,3.171.9,3.171,2.964s.069,5.446.069,7.653c0,2.137.413,2.413.551,2.619.207.207.069.345-.138.345H18.088c-.345,0-.345-.207-.345-.345V8.032s-2,4.136-2.413,5.033-1.379.965-2.275.965-1.792,0-2.275-1.1c-.551-1.1-2.413-4.964-2.413-4.964v3.654a2.42,2.42,0,0,0,.689,1.93c.206.207.137.414,0,.414H1.4c-.275,0-.413-.138-.413-.345S.922,4.792.922,3.482A4.493,4.493,0,0,0,.094.793C-.181.449.232.38.232.38" transform="translate(0 -0.104)" fill="#e0131c" fill-rule="evenodd"/>
    <path id="Path_13" data-name="Path 13" d="M40.538,4.84H51.706c.275,0,.551.137.551.413v6.756c0,1.792.413,2.482.62,2.619.138.207.069.552-.207.552H47.707a1.883,1.883,0,0,1-2.068-1.448,5.213,5.213,0,0,1-4.412,1.516c-4.067,0-5.584-2.412-5.515-5.859a4.573,4.573,0,0,1,4.826-4.55m2.62,3.309c-.345.345-.689.689-.62,2.413a1.631,1.631,0,0,0,1.654,1.654,1.416,1.416,0,0,0,1.379-1.309V7.942c0-.206-.138-.344-.344-.275-1.1.138-1.655.069-2.068.482" transform="translate(-9.766 -1.323)" fill="#e0131c" fill-rule="evenodd"/>
    <path id="Path_14" data-name="Path 14" d="M61.013,4.839h7.307c2.688,0,4.273,1.241,4.55,3.1a4.918,4.918,0,0,1,0,1.861c0,.206-.138.275-.345.344s-4,1.31-4.2,1.379c-.208,0-.345,0-.277-.276A5.179,5.179,0,0,0,68.6,9.113c-.069-1.241-.413-1.31-.62-1.448-.276-.137-.552-.206-.552,0s-.068.276-.068.482-.069,2.137-.069,4.068a3.987,3.987,0,0,0,.482,2.482c.069.275.139.482-.206.482H61.013c-.276,0-.345-.207-.345-.551V5.183a.369.369,0,0,1,.345-.344" transform="translate(-16.591 -1.323)" fill="#e0131c" fill-rule="evenodd"/>
    <path id="Path_15" data-name="Path 15" d="M77.068,4.839h4.48c2,0,2.758.689,2.758,2.757v4.757c0,.966.413,1.173.9,1.173a2.258,2.258,0,0,0,2.206-2.137V7.252a3.363,3.363,0,0,0-.482-2,.23.23,0,0,1,.138-.413h6.549c.413,0,.482.138.482.482s.069,8.755.069,9.1,0,.758-.483.758H81.893c-2.482,0-4.274-1.31-4.274-4.205V7.39c0-1.517-.551-1.861-.758-2.068a.277.277,0,0,1,.207-.482" transform="translate(-20.996 -1.323)" fill="#e0131c" fill-rule="evenodd"/>
    <path id="Path_16" data-name="Path 16" d="M169.14,15.18h-4.55c-1.93,0-2.826-.689-2.826-2.758V7.734c0-.965-.276-1.172-.759-1.172A2.336,2.336,0,0,0,158.661,8.7v4.136a3.672,3.672,0,0,0,.551,1.93c.138.137.207.413-.068.413h-6.55c-.413,0-.551-.138-.551-.482V5.6c0-.345,0-.758.482-.758h11.789c2.413,0,4.136,1.31,4.136,4.274v3.516a2.31,2.31,0,0,0,.827,2.068c.207.138.207.482-.137.482" transform="translate(-41.58 -1.323)" fill="#e0131c" fill-rule="evenodd"/>
    <path id="Path_17" data-name="Path 17" d="M183.272,12.836a2.973,2.973,0,0,0,.62,1.93c.138.137.138.413-.138.413h-6.549c-.413,0-.482-.138-.482-.482V7.459a3.163,3.163,0,0,0-.9-2.275c-.137-.137-.137-.344.138-.344h6.756a.544.544,0,0,1,.551.551Z" transform="translate(-48.059 -1.323)" fill="#e0131c" fill-rule="evenodd"/>
    <path id="Path_18" data-name="Path 18" d="M101.526.38h6.618c.413,0,.551.137.551.551V3.206a.4.4,0,0,0,.413.413h4.205c3.24,0,5.515,1.172,5.722,4.343s-1.172,5.377-3.93,5.928a7.985,7.985,0,0,1-6.273-1.585c-.138,1.1-1.172,1.654-2.551,1.654H102.7c-.345,0-.689-.138-.689-.551V4.171a5.356,5.356,0,0,0-.689-3.24c-.275-.414-.138-.551.207-.551M108.7,9.824a1.379,1.379,0,0,0,1.516,1.379c1.655,0,1.792-1.31,1.792-2.551s-.482-2.137-1.516-2.137H108.7Z" transform="translate(-27.668 -0.104)" fill="#e0131c" fill-rule="evenodd"/>
    <path id="Path_19" data-name="Path 19" d="M130.587,4.839h9.1c2.413,0,4.205.62,4.205,3.171v2.275c0,.414-.207.551-.552.551h-6.686a2.133,2.133,0,0,1-1.586-.62c-.344-.276-1.1-.827-1.1-.827v1.723a1.61,1.61,0,0,0,1.516,1.792,1.9,1.9,0,0,0,1.861-.966.628.628,0,0,1,.345-.206h5.721c.138,0,.345.068.345.275,0,1.448-.482,3.171-4.343,3.171H131.07c-2.413,0-3.792-1.31-3.792-4.067V8.493c0-2,1.1-3.654,3.309-3.654m3.378,3.033v.62c0,.276.207.345.345.413a8.675,8.675,0,0,0,1.93.276c.345,0,.966,0,.966-.689s-.551-.9-1.035-.9H134.31a.316.316,0,0,0-.345.276" transform="translate(-34.807 -1.323)" fill="#e0131c" fill-rule="evenodd"/>
    <path id="Path_20" data-name="Path 20" d="M180.17,0C177.758,0,177,.482,177,1.516c0,.966.759,1.448,3.171,1.448,2.62,0,3.24-.482,3.24-1.448,0-1.034-.759-1.516-3.24-1.516" transform="translate(-48.404 0)" fill="#e0131c" fill-rule="evenodd"/>
  </g>
</svg>
