<svg xmlns="http://www.w3.org/2000/svg" xmlns:xlink="http://www.w3.org/1999/xlink" width="160" height="129.933" viewBox="0 0 160 129.933"><defs><clipPath id="a"><rect width="36" height="109" transform="translate(1986 1443.8)" fill="rgba(224,19,28,0.35)" stroke="#707070" stroke-width="1"/></clipPath><clipPath id="b"><rect width="36" height="109" fill="rgba(224,19,28,0.35)" stroke="#707070" stroke-width="1"/></clipPath></defs><g transform="translate(-1590 -138.067)"><g transform="translate(1461.41 133.65)"><path d="M247.934,66.966h-1.009V42.754h.271A2.759,2.759,0,0,0,249.952,40v-.54A2.76,2.76,0,0,0,247.2,36.7h-.9L219.688,13.09V7.444a3.031,3.031,0,0,0-3.027-3.027H200.52a3.031,3.031,0,0,0-3.027,3.027v5.648L170.881,36.7h-.9a2.759,2.759,0,0,0-2.756,2.756V40a2.76,2.76,0,0,0,2.756,2.756h.27V66.965h-1.009a3.031,3.031,0,0,0-3.027,3.027V128.5a3.031,3.031,0,0,0,3.027,3.027h2.018a3.031,3.031,0,0,0,3.027-3.027v-2.018h30.265V128.5a3.031,3.031,0,0,0,3.027,3.027H209.6a3.031,3.031,0,0,0,3.027-3.027v-2.018h30.265V128.5a3.031,3.031,0,0,0,3.027,3.027h2.018a3.031,3.031,0,0,0,3.027-3.027V69.991a3.028,3.028,0,0,0-3.026-3.027ZM199.51,7.446a1.01,1.01,0,0,1,1.009-1.009H216.66a1.01,1.01,0,0,1,1.009,1.009V12.49H199.51Zm-.57,7.062h19.3L243.259,36.7H173.92ZM169.244,40v-.54a.739.739,0,0,1,.739-.739h77.211a.739.739,0,0,1,.738.739V40a.739.739,0,0,1-.738.739H169.983a.739.739,0,0,1-.74-.739Zm75.662,2.756v24.4a3.023,3.023,0,0,0-2.018,2.841V80.082H212.623V69.993a3.031,3.031,0,0,0-3.027-3.027h-2.018a3.031,3.031,0,0,0-3.027,3.027V80.082H174.287V69.993a3.023,3.023,0,0,0-2.018-2.841v-24.4Zm-2.018,40.1-26.666,28.506h-3.6V82.1H242.89v.749Zm-30.265,30.526h3.027v2.018h-3.027Zm0,4.035h3.027a2.02,2.02,0,0,0,2.018-2.018v-2.628L242.89,85.805v34.633H212.624Zm-11.1-4.035h3.027v2.018h-3.027Zm3.027-2.018h-3.6L174.287,82.853V82.1h30.265ZM174.287,85.807l25.222,26.961V115.4a2.02,2.02,0,0,0,2.018,2.018h3.027v3.027H174.288Zm-2.018,42.7a1.01,1.01,0,0,1-1.009,1.009h-2.018a1.01,1.01,0,0,1-1.009-1.009V70a1.01,1.01,0,0,1,1.009-1.009h2.018A1.01,1.01,0,0,1,172.27,70Zm2.018-4.035v-2.018h30.265v2.018Zm36.318,4.035a1.01,1.01,0,0,1-1.009,1.009h-2.018a1.01,1.01,0,0,1-1.009-1.009V70a1.01,1.01,0,0,1,1.009-1.009H209.6A1.01,1.01,0,0,1,210.605,70Zm2.018-4.035v-2.018h30.265v2.018Zm36.318,4.035a1.01,1.01,0,0,1-1.009,1.009h-2.018a1.01,1.01,0,0,1-1.009-1.009V70a1.01,1.01,0,0,1,1.009-1.009h2.018A1.01,1.01,0,0,1,248.941,70Z" fill="rgba(224,19,28,0.35)"/></g><g transform="translate(-272 -1284.8)" clip-path="url(#a)"><g transform="translate(1953.305 1452.539)"><path d="M229.273,52.682h-.778V34h.209a2.129,2.129,0,0,0,2.126-2.127v-.417a2.129,2.129,0,0,0-2.126-2.127h-.692L207.477,11.11V6.753a2.339,2.339,0,0,0-2.335-2.335H192.687a2.339,2.339,0,0,0-2.335,2.335V11.11L169.816,29.327h-.692A2.129,2.129,0,0,0,167,31.454v.417A2.13,2.13,0,0,0,169.125,34h.209V52.681h-.778a2.339,2.339,0,0,0-2.335,2.335v45.15a2.339,2.339,0,0,0,2.335,2.335h1.557a2.339,2.339,0,0,0,2.335-2.335V98.609H195.8v1.557a2.339,2.339,0,0,0,2.335,2.335h1.557a2.339,2.339,0,0,0,2.335-2.335V98.609h23.354v1.557a2.339,2.339,0,0,0,2.335,2.335h1.557a2.339,2.339,0,0,0,2.335-2.335V55.016a2.337,2.337,0,0,0-2.335-2.335ZM191.907,6.754a.779.779,0,0,1,.778-.778h12.455a.779.779,0,0,1,.778.778v3.892H191.907Zm-.44,5.449H206.36l19.306,17.126h-53.5Zm-22.914,19.67v-.417a.57.57,0,0,1,.57-.57H228.7a.57.57,0,0,1,.569.57v.417a.57.57,0,0,1-.569.57H169.123a.57.57,0,0,1-.571-.57ZM226.936,34V52.825a2.333,2.333,0,0,0-1.557,2.192V62.8H202.026V55.018a2.339,2.339,0,0,0-2.335-2.335h-1.557a2.339,2.339,0,0,0-2.335,2.335V62.8H172.445V55.018a2.333,2.333,0,0,0-1.557-2.192V34Zm-1.557,30.939-20.576,22h-2.776V64.359h23.354v.578ZM202.026,88.494h2.335v1.557h-2.335Zm0,3.114h2.335a1.559,1.559,0,0,0,1.557-1.557V88.022l19.462-20.8V93.942H202.027Zm-8.563-3.114H195.8v1.557h-2.335Zm2.335-1.557h-2.776l-20.578-22v-.578H195.8ZM172.445,67.22l19.462,20.8v2.028a1.559,1.559,0,0,0,1.557,1.557H195.8v2.335H172.446Zm-1.557,32.951a.779.779,0,0,1-.778.778h-1.557a.779.779,0,0,1-.778-.778V55.021a.779.779,0,0,1,.778-.778h1.557a.779.779,0,0,1,.778.778Zm1.557-3.114V95.5H195.8v1.557Zm28.024,3.114a.779.779,0,0,1-.778.778h-1.557a.779.779,0,0,1-.778-.778V55.021a.779.779,0,0,1,.778-.778h1.557a.779.779,0,0,1,.778.778Zm1.557-3.114V95.5h23.354v1.557Zm28.024,3.114a.779.779,0,0,1-.778.778h-1.557a.779.779,0,0,1-.778-.778V55.021a.779.779,0,0,1,.778-.778h1.557a.779.779,0,0,1,.778.778Z" transform="translate(-166.219 -4.417)" fill="rgba(224,19,28,0.35)"/></g></g><g transform="translate(1590 159)" clip-path="url(#b)"><g transform="translate(3.305 8.74)"><path d="M168.555,52.682h.778V34h-.209A2.129,2.129,0,0,1,167,31.872v-.417a2.129,2.129,0,0,1,2.126-2.127h.692L190.351,11.11V6.753a2.339,2.339,0,0,1,2.335-2.335h12.455a2.339,2.339,0,0,1,2.335,2.335V11.11l20.535,18.217h.692a2.129,2.129,0,0,1,2.127,2.127v.417A2.13,2.13,0,0,1,228.7,34H228.5V52.681h.778a2.339,2.339,0,0,1,2.335,2.335v45.15a2.339,2.339,0,0,1-2.335,2.335h-1.557a2.339,2.339,0,0,1-2.335-2.335V98.609H202.028v1.557a2.339,2.339,0,0,1-2.335,2.335h-1.557a2.339,2.339,0,0,1-2.335-2.335V98.609H172.447v1.557a2.339,2.339,0,0,1-2.335,2.335h-1.557a2.339,2.339,0,0,1-2.335-2.335V55.016a2.337,2.337,0,0,1,2.335-2.335ZM205.921,6.754a.779.779,0,0,0-.778-.778H192.687a.779.779,0,0,0-.778.778v3.892h14.012Zm.44,5.449H191.468L172.163,29.329h53.5Zm22.914,19.67v-.417a.57.57,0,0,0-.57-.57H169.126a.57.57,0,0,0-.569.57v.417a.57.57,0,0,0,.569.57h59.579a.57.57,0,0,0,.571-.57ZM170.892,34V52.825a2.333,2.333,0,0,1,1.557,2.192V62.8H195.8V55.018a2.339,2.339,0,0,1,2.335-2.335h1.557a2.339,2.339,0,0,1,2.335,2.335V62.8h23.354V55.018a2.333,2.333,0,0,1,1.557-2.192V34Zm1.557,30.939,20.576,22H195.8V64.359H172.448v.578ZM195.8,88.494h-2.335v1.557H195.8Zm0,3.114h-2.335a1.559,1.559,0,0,1-1.557-1.557V88.022l-19.462-20.8V93.942H195.8Zm8.563-3.114H202.03v1.557h2.335Zm-2.335-1.557h2.776l20.578-22v-.578H202.03ZM225.384,67.22l-19.462,20.8v2.028a1.559,1.559,0,0,1-1.557,1.557h-2.335v2.335h23.354Zm1.557,32.951a.779.779,0,0,0,.778.778h1.557a.779.779,0,0,0,.778-.778V55.021a.779.779,0,0,0-.778-.778h-1.557a.779.779,0,0,0-.778.778Zm-1.557-3.114V95.5H202.03v1.557Zm-28.024,3.114a.779.779,0,0,0,.778.778h1.557a.779.779,0,0,0,.778-.778V55.021a.779.779,0,0,0-.778-.778h-1.557a.779.779,0,0,0-.778.778ZM195.8,97.057V95.5H172.449v1.557Zm-28.024,3.114a.779.779,0,0,0,.778.778h1.557a.779.779,0,0,0,.778-.778V55.021a.779.779,0,0,0-.778-.778h-1.557a.779.779,0,0,0-.778.778Z" transform="translate(-166.219 -4.417)" fill="rgba(224,19,28,0.35)"/></g></g></g></svg>