<svg xmlns="http://www.w3.org/2000/svg" xmlns:xlink="http://www.w3.org/1999/xlink" width="207.502" height="32.73" viewBox="0 0 207.502 32.73"><defs><clipPath id="a"><rect width="207.502" height="32.73" fill="none"/></clipPath></defs><g transform="translate(0 0)" clip-path="url(#a)"><path d="M110.122,21.675a8.4,8.4,0,0,0,.211,2c-.105.105-.421.21-.527.105a2.475,2.475,0,0,0-2.525-1.894c-.947,0-2.42,1.262-2.42,3.893s.947,3.894,2.525,3.894,2.105-1.053,2.525-2c.105-.105.421-.105.421.1a11.965,11.965,0,0,1,0,2,11.133,11.133,0,0,1-2.947.631,5.454,5.454,0,0,1-3.473-1.051,4.138,4.138,0,0,1-1.685-3.474,4.215,4.215,0,0,1,1.579-3.473,5.826,5.826,0,0,1,3.578-1.158,9.709,9.709,0,0,1,2.736.421" transform="translate(11.155 2.32)" fill="#e0131c" fill-rule="evenodd"/><path d="M110.1,25.8a4.675,4.675,0,0,1,4.84-4.736C118,21.065,120,22.959,120,25.59a4.794,4.794,0,0,1-5.052,4.736c-2.947,0-4.84-1.894-4.84-4.525m2.42-.105c0,2.947.947,4,2.42,4,2.421,0,2.525-2.421,2.525-4,0-2.947-.946-4-2.42-4-1.578,0-2.525,1.158-2.525,4" transform="translate(12.015 2.299)" fill="#e0131c" fill-rule="evenodd"/><path d="M134.49,25.9a4.7,4.7,0,0,1,4.946-4.736c3.052,0,4.947,1.894,4.947,4.525a4.764,4.764,0,0,1-4.947,4.736c-2.946,0-4.946-1.894-4.946-4.525m2.525-.105c0,2.947.842,4,2.315,4,2.527,0,2.632-2.42,2.632-4,0-2.947-1.053-4-2.421-4-1.578,0-2.525,1.158-2.525,4" transform="translate(14.676 2.309)" fill="#e0131c" fill-rule="evenodd"/><path d="M169.408,25.9a4.7,4.7,0,0,1,4.946-4.736c3.052,0,4.947,1.894,4.947,4.525a4.764,4.764,0,0,1-4.947,4.736c-2.947,0-4.946-1.894-4.946-4.525m2.525-.105c0,2.947.842,4,2.315,4,2.527,0,2.632-2.42,2.632-4,0-2.947-1.053-4-2.421-4-1.578,0-2.525,1.158-2.525,4" transform="translate(18.486 2.309)" fill="#e0131c" fill-rule="evenodd"/><path d="M127.086,28.6c.105.527.21,1.053.526,1.053,0,0,.316.105.211.316s-.527.211-1.053.211a2.2,2.2,0,0,1-1.474-.316c-.315-.211-.42-.736-.631-2-.42-2.105-1.473-1.894-2-1.894v2.525c0,.527,0,.947.632,1.053a.39.39,0,0,1,.211.316c0,.316-.211.316-.211.316h-3.578s-.211,0-.105-.316a.462.462,0,0,1,.105-.316c.526,0,.631-.631.631-.42V23.233c0-.105,0-1.053-.736-1.158a.387.387,0,0,1-.211-.315.31.31,0,0,1,.316-.316h4.525c1.789,0,2.736.947,2.736,2.21a1.992,1.992,0,0,1-1.789,1.789A2.409,2.409,0,0,1,126.77,26.6a6.608,6.608,0,0,1,.316,2m-4.1-3.473c1.474,0,1.578-1.578,1.578-1.578s-.1-1.474-1.368-1.474c-.421,0-.527.105-.527.842v2.21Z" transform="translate(13.029 2.34)" fill="#e0131c" fill-rule="evenodd"/><path d="M151.566,28.6c.105.527.211,1.053.527,1.053,0,0,.315.105.211.316s-.527.211-1.053.211a2.2,2.2,0,0,1-1.474-.316c-.315-.211-.526-.736-.736-2-.315-2.105-1.368-1.894-1.894-1.894v2.525c0,.527,0,.947.632,1.053a.39.39,0,0,1,.21.316c0,.316-.21.316-.21.316H144.2s-.21,0-.21-.316a.39.39,0,0,1,.21-.316c.527,0,.527-.631.527-.42V23.233c0-.105.105-1.053-.632-1.158a.387.387,0,0,1-.21-.315.309.309,0,0,1,.315-.316h4.526c1.789,0,2.631.947,2.631,2.21,0,.526-.632,1.789-1.685,1.789a2.716,2.716,0,0,1,1.579,1.157c.105.527.211,1.474.315,2m-4.209-3.473a1.673,1.673,0,0,0,1.684-1.578s-.105-1.474-1.368-1.474c-.527,0-.527.105-.527.842v2.21Z" transform="translate(15.701 2.34)" fill="#e0131c" fill-rule="evenodd"/><path d="M130.825,26.075V28.5c0,.526-.105.946.527,1.051a.39.39,0,0,1,.211.316c0,.316-.211.316-.211.316h-3.474s-.21,0-.21-.316a.39.39,0,0,1,.21-.316c.527,0,.527-.631.527-.42V23.233c0-.105.105-1.053-.736-1.158a.457.457,0,0,1-.105-.315c0-.316.21-.316.21-.316H132.4c1.684,0,2.631.947,2.631,2.21a2.32,2.32,0,0,1-1.369,2,8,8,0,0,1-2.842.42m.211-.842c1.473,0,1.578-1.684,1.578-1.684s-.105-1.474-1.262-1.474c-.527,0-.527.105-.527.842v2.316Z" transform="translate(13.92 2.34)" fill="#e0131c" fill-rule="evenodd"/><path d="M156.146,29.561a.615.615,0,0,0-.1.42.206.206,0,0,0,.21.211h3.263a.31.31,0,0,0,.316-.316c0-.315-.211-.315-.211-.315a4.583,4.583,0,0,1-.632-.738s-2.42-7.051-2.525-7.261c-.105-.315-1.473-.315-1.578,0s-2.631,6.736-2.631,6.736c-.316.736-.632,1.158-1.158,1.263v.631h2.315s.211,0,.211-.316a.387.387,0,0,0-.211-.315c-.315-.105-.42-.211-.42-.632,0-.105.631-1.684.631-1.684h2.316l.631,1.684v.316s0,.316-.421.316M153.937,26.3l.842-2.209.736,2.209Z" transform="translate(16.488 2.327)" fill="#e0131c" fill-rule="evenodd"/><path d="M165.073,21.349h-6.314c-.421,0-.736.105-.736.632v1.368c0,.211,0,.316.1.42.211,0,.316,0,.421-.315.316-1.158.842-1.263,1.369-1.369.42,0,.631,0,.736.105a.633.633,0,0,1,.105.421v6.209c0,.316-.421.631-.632.736a.421.421,0,0,0-.21.421c0,.105.105.211.42.211h3.158c.315,0,.42-.105.42-.211a.421.421,0,0,0-.211-.421c-.21-.105-.631-.42-.631-.736V22.612a.633.633,0,0,1,.105-.421c.105-.105.316-.105.736-.105.527.105,1.053.211,1.369,1.369.105.315.211.315.42.315.105-.1.105-.21.105-.42V21.981c0-.527-.315-.632-.736-.632" transform="translate(17.244 2.33)" fill="#e0131c" fill-rule="evenodd"/><path d="M169.222,29.559c-.211-.105-.631-.421-.631-.736v-6.1c0-.42.42-.631.631-.736a.419.419,0,0,0,.211-.42c0-.105-.211-.211-.527-.211h-3.051c-.316,0-.527.105-.527.211a.8.8,0,0,0,.211.42c.211.105.631.316.631.736v6.1c0,.315-.42.631-.631.736a.8.8,0,0,0-.211.421c0,.1.211.21.527.21h3.051c.316,0,.527-.105.527-.21a.421.421,0,0,0-.211-.421" transform="translate(18.041 2.33)" fill="#e0131c" fill-rule="evenodd"/><path d="M178.9,21.665c0-.211.211-.316.421-.316h2.1a1.446,1.446,0,0,1,1.158.421c.316.526,3.158,4.1,3.263,4.209s.315.211.315,0V22.718a.818.818,0,0,0-.631-.842c-.316-.105-.527-.527,0-.527h1.894c.42,0,.42.316.105.527-.316.105-.527.211-.527.842v6.525c0,.526-.211.947-.526.947s-.316-.105-.631-.421-4.841-6-4.947-6.1-.211-.105-.211.105v5.051a.94.94,0,0,0,.631.842c.211.105.211.211.211.316s-.105.211-.316.211h-1.788c-.211,0-.316-.105-.316-.211,0-.211,0-.316.211-.421s.526-.105.526-.526v-6a1.2,1.2,0,0,0-.316-.842c-.315-.21-.631-.315-.631-.526" transform="translate(19.522 2.33)" fill="#e0131c" fill-rule="evenodd"/><path d="M.355.38H11.932c1.578,0,3.789.421,4.525,2.105.842,1.684,3.683,7.787,3.683,7.787s3.262-6.63,3.894-7.787A4.01,4.01,0,0,1,27.822.38H33.4c2.736,0,4.841,1.369,4.841,4.525s.105,8.314.105,11.682c0,3.262.631,3.683.842,4,.316.316.105.527-.211.527H27.613c-.527,0-.527-.316-.527-.527V12.061s-3.051,6.314-3.683,7.683S21.3,21.217,19.93,21.217s-2.736,0-3.473-1.684c-.842-1.684-3.683-7.578-3.683-7.578v5.579a3.7,3.7,0,0,0,1.053,2.946c.315.316.21.632,0,.632H2.144c-.42,0-.631-.211-.631-.527s-.105-13.47-.105-15.47a6.859,6.859,0,0,0-1.263-4.1C-.276.485.355.38.355.38" transform="translate(0 0.042)" fill="#e0131c" fill-rule="evenodd"/><path d="M43.08,4.84H60.13c.42,0,.842.21.842.631V15.785c0,2.736.631,3.789.947,4,.211.316.105.843-.316.843H54.025a2.874,2.874,0,0,1-3.157-2.21c-2.527,2.42-4.42,2.315-6.736,2.315-6.209,0-8.525-3.682-8.419-8.945.105-4.947,4.1-6.945,7.367-6.945m4,5.051c-.527.527-1.053,1.053-.947,3.683A2.49,2.49,0,0,0,48.658,16.1a2.162,2.162,0,0,0,2.105-2V9.575c0-.315-.211-.526-.526-.42-1.685.211-2.527.105-3.158.736" transform="translate(3.897 0.528)" fill="#e0131c" fill-rule="evenodd"/><path d="M61.195,4.839H72.35c4.1,0,6.524,1.894,6.945,4.736a7.508,7.508,0,0,1,0,2.842c0,.315-.211.42-.527.526s-6.1,2-6.419,2.105c-.317,0-.527,0-.423-.421a7.905,7.905,0,0,0,.842-3.262c-.105-1.894-.631-2-.946-2.21-.421-.21-.843-.315-.843,0s-.1.421-.1.736-.105,3.263-.105,6.21c0,2.842.526,3.367.736,3.789.105.42.212.736-.315.736h-10c-.421,0-.527-.316-.527-.842V5.365a.563.563,0,0,1,.527-.526" transform="translate(6.62 0.528)" fill="#e0131c" fill-rule="evenodd"/><path d="M77.222,4.839h6.84c3.052,0,4.21,1.053,4.21,4.209V16.31c0,1.474.631,1.79,1.369,1.79a3.447,3.447,0,0,0,3.367-3.263V8.522a5.134,5.134,0,0,0-.736-3.052.351.351,0,0,1,.211-.631h10c.631,0,.736.211.736.736s.105,13.366.105,13.892,0,1.158-.738,1.158h-18c-3.789,0-6.525-2-6.525-6.42V8.733c0-2.316-.842-2.842-1.158-3.158a.423.423,0,0,1,.316-.736" transform="translate(8.378 0.528)" fill="#e0131c" fill-rule="evenodd"/><path d="M178.144,20.625H171.2c-2.947,0-4.314-1.053-4.314-4.21V9.259c0-1.473-.421-1.789-1.159-1.789a3.567,3.567,0,0,0-3.578,3.263v6.314a5.606,5.606,0,0,0,.842,2.947c.211.21.316.631-.1.631h-10c-.631,0-.842-.211-.842-.736V6c0-.527,0-1.158.736-1.158h18c3.683,0,6.314,2,6.314,6.525v5.367c0,2.316,1.054,2.947,1.263,3.158.316.211.316.736-.21.736" transform="translate(16.591 0.528)" fill="#e0131c" fill-rule="evenodd"/><path d="M187.24,17.047a4.538,4.538,0,0,0,.947,2.947c.211.21.211.631-.211.631h-10c-.631,0-.736-.211-.736-.736V8.838a4.829,4.829,0,0,0-1.369-3.474c-.21-.21-.21-.526.211-.526H186.4a.831.831,0,0,1,.842.842Z" transform="translate(19.177 0.528)" fill="#e0131c" fill-rule="evenodd"/><path d="M101.712.38h10.1c.631,0,.842.21.842.842V4.694a.606.606,0,0,0,.631.631h6.42c4.947,0,8.419,1.789,8.735,6.63s-1.789,8.209-6,9.05a12.19,12.19,0,0,1-9.576-2.42c-.211,1.684-1.789,2.525-3.894,2.525H103.5c-.527,0-1.053-.211-1.053-.842V6.167c0-3.051-.631-4.42-1.053-4.946-.42-.632-.211-.842.316-.842M112.657,14.8a2.105,2.105,0,0,0,2.315,2.105c2.527,0,2.736-2,2.736-3.894s-.736-3.262-2.315-3.262h-2.736Z" transform="translate(11.04 0.042)" fill="#e0131c" fill-rule="evenodd"/><path d="M132.33,4.839h13.892c3.683,0,6.42.947,6.42,4.841v3.473c0,.632-.316.842-.843.842H141.591a3.256,3.256,0,0,1-2.421-.947c-.526-.421-1.684-1.262-1.684-1.262v2.631a2.458,2.458,0,0,0,2.315,2.736,2.893,2.893,0,0,0,2.842-1.474.959.959,0,0,1,.527-.315H151.9c.211,0,.527.1.527.42,0,2.21-.736,4.841-6.63,4.841H133.067c-3.683,0-5.788-2-5.788-6.209v-4c0-3.052,1.684-5.578,5.052-5.578m5.156,4.631v.947c0,.421.316.527.527.631a13.243,13.243,0,0,0,2.946.421c.527,0,1.474,0,1.474-1.053s-.842-1.369-1.579-1.369h-2.84a.482.482,0,0,0-.527.421" transform="translate(13.889 0.528)" fill="#e0131c" fill-rule="evenodd"/><path d="M181.84,0C178.157,0,177,.736,177,2.315c0,1.474,1.158,2.21,4.841,2.21,4,0,4.947-.736,4.947-2.21C186.787.736,185.629,0,181.84,0" transform="translate(19.314 0)" fill="#e0131c" fill-rule="evenodd"/></g></svg>