<svg xmlns="http://www.w3.org/2000/svg" width="136.1" height="66.569" viewBox="0 0 136.1 66.569">
  <g id="Group_29306" data-name="Group 29306" transform="translate(-178.9 -1423.262)">
    <path id="Path_85730" data-name="Path 85730" d="M14.58,164.06H79.672v2.958H17.54v29.588H79.672v2.958H14.58Z" transform="translate(235.328 1266.598)" fill="#878787"/>
    <path id="Path_85731" data-name="Path 85731" d="M443.418,207.81H437.5v2.958h5.918Z" transform="translate(-214.219 1231.724)" fill="#878787"/>
    <path id="Path_85732" data-name="Path 85732" d="M411.288,207.81H408.33v2.958h2.958Z" transform="translate(-176.172 1231.724)" fill="#878787"/>
    <path id="Path_85733" data-name="Path 85733" d="M17.545,164.585l20.71-5.918,2.958-8.876h2.958l11.834-11.834h20.71v35.5h2.958V135c0-2.557,1.545-7.4,7.4-7.4v2.958A4.22,4.22,0,0,0,82.632,135v38.462h8.876v8.876h6.068a10.3,10.3,0,0,1,20.408,0h3.26a10.3,10.3,0,0,1,20.408,0h9.03V185.3h-9.027a10.3,10.3,0,0,1-20.408,0h-3.26a10.3,10.3,0,0,1-20.408,0H91.51v2.958H58.964V185.3H46.978a10.3,10.3,0,0,1-20.408,0H14.584V176.42h2.958Zm113.909,26.628a7.4,7.4,0,1,0-7.4-7.4A7.4,7.4,0,0,0,131.453,191.213Zm-23.67,0a7.4,7.4,0,1,0-7.4-7.4A7.4,7.4,0,0,0,107.783,191.213ZM43.347,152.751l-1.97,5.918h14.63v-5.918ZM67.84,185.3H88.55v-8.876H67.84Zm-5.917,0h2.958v-8.876H61.924Zm-25.149,5.917a7.4,7.4,0,1,0-7.4-7.4A7.4,7.4,0,0,0,36.775,191.214ZM20.5,182.338H26.57a10.3,10.3,0,0,1,20.408,0H58.965v-8.876H73.758V140.916H57.231l-8.876,8.876H58.965v11.834h-20.3L20.5,166.817Z" transform="translate(164.316 1295.659)" fill="#878787"/>
    <path id="Path_85734" data-name="Path 85734" d="M75.876,193.23H72.918v2.958h2.958Z" transform="translate(227.288 1243.346)" fill="#878787"/>
    <path id="Path_85735" data-name="Path 85735" d="M143.5,193.23H102.08v2.958H143.5Z" transform="translate(153.746 1243.346)" fill="#878787"/>
    <path id="Path_85736" data-name="Path 85736" d="M87.5,387.253a4.438,4.438,0,1,0,4.438-4.438,4.438,4.438,0,0,0-4.438,4.438" transform="translate(203.83 1092.224)" fill="#878787"/>
    <path id="Path_85737" data-name="Path 85737" d="M204.17,387.253a4.438,4.438,0,1,0,4.438-4.438,4.438,4.438,0,0,0-4.438,4.438" transform="translate(63.49 1092.224)" fill="#878787"/>
    <path id="Path_85738" data-name="Path 85738" d="M554.17,387.253a4.438,4.438,0,1,0,4.438-4.438,4.438,4.438,0,0,0-4.438,4.438" transform="translate(-357.518 1092.224)" fill="#878787"/>
  </g>
</svg>
